<?xml version="1.0" encoding="utf-8"?>
<!-- Generator: Adobe Illustrator 27.2.0, SVG Export Plug-In . SVG Version: 6.00 Build 0)  -->
<svg version="1.1" id="Capa_1" xmlns="http://www.w3.org/2000/svg" xmlns:xlink="http://www.w3.org/1999/xlink" x="0px" y="0px"
	 viewBox="0 0 525.9 421.9" style="enable-background:new 0 0 525.9 421.9;" xml:space="preserve">
<style type="text/css">
	.st0{fill:#FFFFFF;stroke:#FFFFFF;stroke-miterlimit:10;}
</style>
<path class="st0" d="M503.3,194.9c-11.7,0-21.3,9.4-22.5,21.4h-47.2c0-1.8,0.1-3.5,0.1-5.3c0-21.6-3.4-42.4-9.6-62l30.2-0.4
	l1.3-33.6h24.8c2.8,9.7,11.5,16.8,21.6,16.8c12.5,0,22.6-10.7,22.6-23.8c0-13.1-10.2-23.8-22.6-23.8c-11.5,0-20.9,9.1-22.4,20.7
	h-33.8l-1.3,33.7l-23.8,0.3C390.3,58,310.4,0,216.8,0C97.3,0,0,94.6,0,211C0,277,31.4,336,80.4,374.8c0.1,0.4,0.3,0.9,0.4,1.3
	l0.9-0.3c37.1,28.8,84.1,46.2,135.1,46.2c114.2,0,208-86.4,216.2-195.5h48.9c3,9.4,11.5,16.2,21.4,16.2c12.5,0,22.6-10.7,22.6-23.8
	C525.9,205.6,515.8,194.9,503.3,194.9z M502,94.3c6.9,0,12.4,6.1,12.4,13.7s-5.6,13.7-12.4,13.7c-6.9,0-12.4-6.1-12.4-13.7
	S495.1,94.3,502,94.3z M423.5,211c0,1.8-0.1,3.5-0.1,5.3h-60.5c-2.4-24.3-6.9-46.5-12.5-66.3l63.1-0.8
	C419.9,168.6,423.5,189.4,423.5,211z M351.8,297.3c-46.5-23.5-90.8-31.8-129.9-32.1v-38.7h131.6
	C355.1,248.4,354.8,272.1,351.8,297.3z M76.6,226.4h135.1v38.8c-25.1,0.7-47.8,4.6-67.2,9.6C117,282,93.7,292,75.8,301.3
	C73.2,275.1,73.8,250,76.6,226.4z M66.1,306.5c-9.7,5.4-17.3,10.3-22.4,13.9c-18.4-27.4-30.1-59.5-32.8-93.9h55.6
	C63.5,251.6,63,278.4,66.1,306.5z M221.9,104.6c3.8-0.1,7.7-0.4,11.6-0.7l-11.6,35.2V104.6z M211.7,137l-10-32.6
	c3.3,0.2,6.6,0.3,10,0.4V137z M244.6,102.6c21.2-3.1,43.8-9.7,67-21.7c5.3,10.1,10.7,21.2,15.6,33.3c3,7.4,6,15.4,8.8,23.9
	c-34.8,17.3-72.1,26-111.7,26.1L244.6,102.6z M248.1,92.1l23.4-71.1c7.2,8.4,21,25.9,35.3,51.2C287.8,81.9,268.2,88.6,248.1,92.1z
	 M285.2,21.5c20.2,6.9,38.9,16.7,55.7,29c-8.3,6.2-16.7,11.8-25.2,16.7C304.3,46.8,293.2,31.5,285.2,21.5z M236.9,93.6
	c-5,0.5-9.9,0.9-14.9,1.1V10.3c14,0.3,27.6,2,40.8,4.9L236.9,93.6z M211.7,94.8c-4.4-0.1-8.8-0.3-13.2-0.7l-24.4-79.5
	c0,0,0-0.1,0-0.1c12.2-2.5,24.8-3.9,37.7-4.2L211.7,94.8L211.7,94.8z M165.3,20.6l22.2,72.3c-7.7-1.1-15.5-2.6-23.3-4.5
	c-13.5-3.4-25.9-7.8-36.6-12.4C142.9,49.2,157.5,30.2,165.3,20.6z M118.4,71.7C104.3,65,93.8,58.3,87.8,54.3
	c19.1-14.9,41-26.6,64.9-34.2C144.1,31.1,131.4,48.7,118.4,71.7z M161.4,98.1c9,2.2,18.8,4.1,29.4,5.3l18.6,60.4
	c-18.6-1-37.8-3.7-57.4-8.4c-19.7-4.7-37.8-10.9-53.6-17.3c7.4-19.8,15.8-37.6,24.3-53.2C133.9,89.7,146.9,94.4,161.4,98.1z
	 M149.3,165.1c18.6,4.4,39.7,7.8,62.5,8.7v42.5H78c3.7-24.6,9.7-47.6,16.9-68.6C110.9,154.1,129.2,160.3,149.3,165.1z M147.6,284.6
	c21.6-5.6,43-8.8,64.2-9.4v52.1c-16.9,0.5-32.2,3.3-45.3,7c-38.2,10.8-64.7,30.4-73.4,37.5c-1.3-1-2.6-2-3.9-3
	c-5.8-19.3-9.8-38.2-12.2-56.5C95,302.6,119.1,292,147.6,284.6z M169.6,343.8c14.2-4,28.2-6.2,42.2-6.7v74.5
	c-40.6-1-78.4-13.3-109.9-33.9C111.8,370,136.3,353.2,169.6,343.8z M221.9,337.1c37.5,1,74.1,14.7,109.2,41
	c-31.4,20.4-68.9,32.6-109.2,33.5V337.1z M221.9,327.2V275c44.1,0.2,87,11.2,128.5,32.9c-2.9,19.7-7.5,40.2-14.1,61.5
	C295.1,338.8,255.7,328.2,221.9,327.2z M221.9,216.3V174c0.2,0,0.4,0,0.6,0c36.3,0,76.4-6.9,116.6-26.3c6.1,20.2,11,43.2,13.6,68.6
	H221.9z M354.3,139.7c13.9-7.9,27.9-17.4,41.6-28.7c5.3,8.9,9.9,18.3,13.8,28L354.3,139.7z M390.5,102.3
	c-14.5,12.1-29.6,22.4-45.3,31c-2.8-8.3-5.7-16.1-8.7-23.4C331.4,97.5,326,86.2,320.6,76c9.5-5.4,19-11.8,28.6-19.1
	C365.2,69.9,379.1,85.2,390.5,102.3z M79.6,61c5.6,4,17.3,11.7,33.8,19.7C105,96.4,96.5,114.3,89,134.1
	c-23.8-10.4-41.3-20.8-49.6-26C50.3,90.5,63.9,74.6,79.6,61z M34.3,116.9c8.9,5.6,26.8,16.3,51.2,26.9c-7.7,22.1-14,46.4-17.8,72.5
	H10.3c0-1.8-0.1-3.5-0.1-5.3C10.2,177,18.9,145,34.3,116.9z M49.5,328.7c4.3-2.9,10.3-6.8,17.9-11.2c1.8,13,4.4,26.2,7.9,39.7
	C65.9,348.5,57.2,338.9,49.5,328.7z M348,366.1c5.4-18.3,9.3-36,11.9-53c8.2,4.7,16.4,9.8,24.5,15.3
	C373.9,342.4,361.7,355.1,348,366.1z M390.2,320c-9.7-6.6-19.3-12.5-28.8-17.7c3.5-27,4-52.4,2.3-75.9h59.1
	C420.1,260.7,408.5,292.7,390.2,320z M503.3,232.4c-6.9,0-12.4-6.1-12.4-13.7s5.6-13.7,12.4-13.7s12.4,6.1,12.4,13.7
	S510.2,232.4,503.3,232.4z"/>
</svg>
