<?xml version="1.0" encoding="utf-8"?>
<!-- Generator: Adobe Illustrator 27.2.0, SVG Export Plug-In . SVG Version: 6.00 Build 0)  -->
<svg version="1.1" id="Capa_1" xmlns="http://www.w3.org/2000/svg" xmlns:xlink="http://www.w3.org/1999/xlink" x="0px" y="0px"
	 viewBox="0 0 1078 240.5" style="enable-background:new 0 0 1078 240.5;" xml:space="preserve">
<style type="text/css">
	.st0{fill:#FFFFFF;}
	.st1{fill:#FCFCFC;}
	.st2{fill:#5A7D98;}
	.st3{fill:#FACE16;}
	.st4{fill:#587C9A;}
	.st5{fill:#597E9B;}
</style>
<g>
	<path class="st0" d="M592.5,98.7c-3,8.2-6,16.3-9,24.5c-1.9,5.2-4.2,9.9-9.6,13.1c-4.5,2.7-12.6,2.9-17,0.3c-5.3-3.2-8-7.8-10-12.9
		C532,84.5,517.1,45.3,502.3,6.1c-0.4-1.1-0.7-2.2-1.1-3.7c6.9,0,13.5,0,20.8,0c14.1,37,28.3,74.3,42.5,111.7c0.4,0,0.8,0,1.1,0
		c1.5-4.2,3.1-8.4,4.6-12.6c3.5-9.4,7-18.8,10.7-28.1c1.2-2.9,1.1-5.6-0.1-8.6c-7.3-19-14.5-38-21.7-57c-0.6-1.7-1.2-3.4-2-5.8
		c6.9,0,13.3-0.2,19.6,0.2c1,0,2.1,2.2,2.6,3.5c4,10.2,7.8,20.4,11.7,30.7c0.3,0.9,0.9,1.8,1.9,3.8c5-13.4,9.6-25.7,14.2-38
		c7,0,13.7,0,21,0c-2.3,6.2-4.4,12-6.6,17.8c-5.6,15.1-11.2,30.3-17,45.3c-1.5,3.8,0.1,6.8,1.3,10c4.9,12.9,9.8,25.8,14.9,39.3
		c0.8-1.2,1.4-1.8,1.7-2.5c9.4-25.3,18.7-50.5,28.1-75.8c3.9-10.5,7.9-21,11.8-31.4c0.8-2.1,1.8-3.1,4.5-3
		c5.6,0.2,11.2,0.1,17.5,0.1c-1,2.9-1.7,5.5-2.6,7.9c-12.7,34.2-25.4,68.3-38.2,102.4c-2.1,5.6-4.1,11.2-6.7,16.7
		c-2.8,6-8.1,9.4-15.3,9.5c-7.5,0.1-12.9-3.6-15.7-9.6c-3.6-7.5-6.3-15.4-9.5-23.1c-1-2.4-2-4.8-2.9-7.2
		C593.2,98.7,592.8,98.7,592.5,98.7z"/>
</g>
<path class="st0" d="M795.6,42.4c-3.4-9.7-7.2-19.3-11.6-28.5c-8-17-38.8-17.5-47.3-0.9c-4,7.8-7.8,15.7-10.9,24
	c-10.8,29.6-21.4,59.4-31.9,89.2c-1.3,3.6-2,7.4-3.3,12.5c5.1,0,8.4-0.5,11.5,0.1c9,1.8,13.2-2.9,16.3-12.6c3-9.4,6.3-18.7,9.6-27.9
	l64.3,4.7c3.2,9.5,6.5,19.1,9.8,28.6c1,2.9,4,6.4,6.4,6.8c6,1,12.2,0.3,20.5,0.3C817.3,104.8,806.6,73.5,795.6,42.4z M743,57
	c3.4-9.3,7.2-18.5,11.2-27.5c3-6.6,8.2-6.7,11.2-0.3c3.4,7.2,6.7,14.6,9.3,22.3c2.8,8.1,5.6,16.3,8.3,24.5l-45.9-3.3
	C739.2,67.4,741.1,62.2,743,57z"/>
<g>
	<g>
		<path class="st1" d="M89.3,233.1c2.7,1.5,6.7,2.8,10.9,2.8c6.2,0,9.8-3,9.8-7.3c0-4-2.5-6.2-8.9-8.5c-7.7-2.5-12.4-6.1-12.4-12.1
			c0-6.6,6.1-11.6,15.2-11.6c4.8,0,8.3,1,10.4,2.1l-1.7,4.5c-1.5-0.8-4.7-2-8.9-2c-6.4,0-8.9,3.5-8.9,6.4c0,4,2.9,5.9,9.3,8.2
			c7.9,2.8,12,6.2,12,12.5c0,6.6-5.4,12.2-16.4,12.2c-4.5,0-9.5-1.2-12-2.7L89.3,233.1z"/>
	</g>
	<g>
		<path class="st1" d="M234.3,218.1c0,14.7-9.8,22.4-21.8,22.4c-12.4,0-21.1-8.7-21.1-21.6c0-13.5,9.3-22.3,21.8-22.3
			C226,196.6,234.3,205.5,234.3,218.1z M197.9,218.8c0,9.1,5.4,17.2,15,17.2c9.6,0,15-8,15-17.7c0-8.5-4.9-17.3-15-17.3
			C202.9,201.1,197.9,209.5,197.9,218.8z"/>
	</g>
	<g>
		<path class="st1" d="M311.8,197.3h6.1v38h20.1v4.6h-26.1V197.3z"/>
	</g>
	<g>
		<path class="st1" d="M417.9,197.3v25.2c0,9.5,4.7,13.6,10.9,13.6c7,0,11.4-4.2,11.4-13.6v-25.2h6.1v24.8
			c0,13.1-7.6,18.4-17.8,18.4c-9.6,0-16.9-5-16.9-18.2v-25.1L417.9,197.3L417.9,197.3z"/>
	</g>
	<g>
		<path class="st1" d="M535.4,201.9h-14.3v-4.7h34.8v4.7h-14.3v37.9h-6.1V201.9z"/>
	</g>
	<g>
		<path class="st1" d="M636.8,197.3v42.6h-6.1v-42.6H636.8z"/>
	</g>
	<g>
		<path class="st1" d="M757.1,218.1c0,14.7-9.8,22.4-21.8,22.4c-12.4,0-21.1-8.7-21.1-21.6c0-13.5,9.3-22.3,21.8-22.3
			C748.9,196.6,757.1,205.5,757.1,218.1z M720.7,218.8c0,9.1,5.4,17.2,15,17.2c9.6,0,15-8,15-17.7c0-8.5-4.9-17.3-15-17.3
			C725.7,201.1,720.7,209.5,720.7,218.8z"/>
	</g>
	<g>
		<path class="st1" d="M834.7,239.8v-42.6h6.6l15,21.5c3.5,5,6.2,9.5,8.4,13.8l0.1-0.1c-0.6-5.7-0.7-10.9-0.7-17.5v-17.8h5.7v42.6
			h-6.1l-14.9-21.6c-3.3-4.7-6.4-9.6-8.8-14.2l-0.2,0.1c0.3,5.4,0.5,10.5,0.5,17.6v18.2L834.7,239.8L834.7,239.8z"/>
	</g>
	<g>
		<path class="st1" d="M949.3,233.1c2.7,1.5,6.7,2.8,10.9,2.8c6.2,0,9.8-3,9.8-7.3c0-4-2.5-6.2-8.8-8.5c-7.7-2.5-12.4-6.1-12.4-12.1
			c0-6.6,6.1-11.6,15.2-11.6c4.8,0,8.3,1,10.4,2.1l-1.7,4.5c-1.5-0.8-4.7-2-8.9-2c-6.4,0-8.8,3.5-8.8,6.4c0,4,2.9,5.9,9.3,8.2
			c7.9,2.8,12,6.2,12,12.5c0,6.6-5.4,12.2-16.4,12.2c-4.5,0-9.5-1.2-12-2.7L949.3,233.1z"/>
	</g>
</g>
<g>
	<path class="st0" d="M879.1,29.4c0,18.7,0,36.8,0,54.9c0,17.9,0,35.8,0,54.6c-6.2,0-12,0.2-17.7-0.2c-1-0.1-2.5-2.8-2.5-4.4
		c-0.2-10.5-0.1-21-0.1-31.5c0-26,0-51.9,0-77.9c0-12.3,5.9-18.7,17.1-18.7c16.2,0,32.4,0,48.5,0c21.9,0,39.2,18.4,39.5,42
		c0.2,23.6-16.7,42.5-38.6,43c-2.2,0.1-4.4,0-8.2,0c13.3,16.3,25.7,31.4,38.8,47.5c-9.5,0-17.8,0.1-26.2-0.1c-1.2,0-2.5-1.4-3.5-2.5
		c-11.9-14.5-23.7-29.1-35.7-43.6c-4-4.8-5.8-10.1-3.2-16c2.5-5.8,7-8.5,13-8.3c8.1,0.2,16.2,0.1,24.3,0c11-0.2,18.9-8.5,18.8-19.7
		c-0.1-11.4-7.9-19.5-19-19.5c-13.6-0.1-27.2,0-40.8,0C882.4,29.1,881.1,29.3,879.1,29.4z"/>
</g>
<g>
	<path class="st0" d="M1078,6.5c0,7.5,0,14.5,0,22.2c-2.6,0.1-5.1,0.4-7.7,0.4c-19.9,0-39.8,0.1-59.7-0.1c-4.2,0-5.8,1.2-5.5,6
		c0.4,6.4,0.2,12.8,0,19.2c-0.2,4,1.1,5.2,4.7,5.1c15.8-0.2,31.7,0,47.6-0.2c3.5,0,5.1,1,4.8,5.1c-0.3,3.9-0.3,7.8,0,11.7
		c0.3,4.2-1.1,5.6-4.9,5.5c-15.5-0.2-31.1,0.1-46.6-0.2c-4.7-0.1-6,1.6-5.5,6.4c0.3,3.2,0.1,6.4,0.1,9.6
		c0.1,12.1,6.1,18.8,17.1,18.9c16.7,0.1,33.3,0,50,0c1.7,0,3.5,0,5.5,0c0,7.6,0,14.7,0,22.3c-1.4,0.2-2.9,0.5-4.4,0.5
		c-16.8,0-33.7,0-50.5,0c-22.4,0-38-16.7-38.2-41.2c-0.2-24.2-0.1-48.3,0-72.5c0.1-12.7,5.9-18.9,17.4-19c23.9-0.1,47.9,0,71.8,0
		C1075.1,6.2,1076.2,6.4,1078,6.5z"/>
</g>
<g>
	<path class="st2" d="M287.6,5.3C222.7-8.2,209,38.6,209,38.6l1.2,62.7c0,0,7.1,33.8,57,35.8c50,2,57.4-40.7,57.4-40.7l1.2-55.4
		C313.4,4.4,287.6,5.3,287.6,5.3z M301.8,98.1c0.2,6.8-12.2,13.5-16.2,15.5c-0.8,0.4-1.7,0.6-2.6,0.6c-5,0.2-23.2,0.8-31.8,1.2
		c-7.8,0.3-16-10.1-19.2-14.8c-0.9-1.3-1.4-2.9-1.4-4.5c0.1-10.1,0.4-49.3,0.4-54.2c0-4.5,8.8-12.1,12.5-15.2c1-0.8,2.3-1.3,3.7-1.3
		l36.6,0.8c0.8,0,1.5,0.2,2.2,0.4c11.3,4.5,14.7,12.5,15.5,15.1c0.2,0.5,0.2,1,0.2,1.5C301.8,49.1,301.6,90.5,301.8,98.1z"/>
	<g>
		<ellipse class="st3" cx="266.2" cy="70.7" rx="17" ry="17.3"/>
	</g>
</g>
<g>
	<path class="st4" d="M0,137l19.4,0.7L52.5,31.1c3.3,15.8,6.6,31.6,9.8,47.5c1.9,9.4,3.9,18.9,5.9,28.3c1.7,8.1,2.7,17.7,7.9,24.1
		c6.3,7.8,16.4,7.8,22.4-0.5c3.9-5.3,6.1-12.1,7.8-18.7C118,66.4,123,30.4,123,30.4l31.6,107.3l18.9-0.7c0,0-9.3-34.7-19.1-69.1
		C144.9,34.5,137.8,3,124.9,0.6c-20-3.6-24.4,49-24.4,49l-11.1,58.1c-0.2,0.8-1.2,0.8-1.4,0c-3.4-14.8-20.2-86.9-23.1-95.3
		C61.6,2.8,51.8-8.5,41.8,9.5S0,137,0,137z"/>
</g>
<path class="st5" d="M458.4,56c0,0,18.4-33.4-21.1-49.9c-1.2-0.5-2.5-0.7-3.8-0.8c-10.4-0.2-57.9-6-60.5,10.9l-2.4,104
	c0,0-1.6,26.3,71.9,13.5C442.6,133.7,512.1,112.8,458.4,56z M392.2,27.7c0-0.1,15.6-0.1,16.6-0.1c4.4,0,8.8,0.1,13.2-0.1
	c4.1-0.2,8.5-0.7,12.4,0.9c4.1,1.7,6.4,5.7,6.5,9.6c0.2,5.3-2.8,13.7-10.2,13.5c-3.2-0.1-38.9-0.7-38.9-0.7
	C391.8,50.8,392.2,27.7,392.2,27.7z M458.1,96.6c-0.6,5.1-3.2,9.8-8.3,12.8c-11.5,6.8-57.3,4-57.3,4l0.4-40.5
	c10,0.1,20,0.2,29.9,0.3c8.3,0.1,18.2-1.4,25.8,2C458.2,79.4,459.1,88.5,458.1,96.6z"/>
</svg>
