<?xml version="1.0" standalone="no"?>
<svg xmlns:xlink="http://www.w3.org/1999/xlink" id="wave" style="transform:rotate(0deg); transition: 0.3s" viewBox="0 0 1440 100" version="1.1" xmlns="http://www.w3.org/2000/svg"><defs><linearGradient id="sw-gradient-0" x1="0" x2="0" y1="1" y2="0"><stop stop-color="rgba(4, 71, 127, 1)" offset="0%"/><stop stop-color="rgba(4, 71, 127, 1)" offset="100%"/></linearGradient></defs><path style="transform:translate(0, 0px); opacity:1" fill="url(#sw-gradient-0)" d="M0,20L26.7,23.3C53.3,27,107,33,160,43.3C213.3,53,267,67,320,65C373.3,63,427,47,480,38.3C533.3,30,587,30,640,33.3C693.3,37,747,43,800,40C853.3,37,907,23,960,28.3C1013.3,33,1067,57,1120,60C1173.3,63,1227,47,1280,38.3C1333.3,30,1387,30,1440,28.3C1493.3,27,1547,23,1600,28.3C1653.3,33,1707,47,1760,55C1813.3,63,1867,67,1920,70C1973.3,73,2027,77,2080,65C2133.3,53,2187,27,2240,16.7C2293.3,7,2347,13,2400,26.7C2453.3,40,2507,60,2560,56.7C2613.3,53,2667,27,2720,28.3C2773.3,30,2827,60,2880,73.3C2933.3,87,2987,83,3040,73.3C3093.3,63,3147,47,3200,48.3C3253.3,50,3307,70,3360,66.7C3413.3,63,3467,37,3520,26.7C3573.3,17,3627,23,3680,31.7C3733.3,40,3787,50,3813,55L3840,60L3840,100L3813.3,100C3786.7,100,3733,100,3680,100C3626.7,100,3573,100,3520,100C3466.7,100,3413,100,3360,100C3306.7,100,3253,100,3200,100C3146.7,100,3093,100,3040,100C2986.7,100,2933,100,2880,100C2826.7,100,2773,100,2720,100C2666.7,100,2613,100,2560,100C2506.7,100,2453,100,2400,100C2346.7,100,2293,100,2240,100C2186.7,100,2133,100,2080,100C2026.7,100,1973,100,1920,100C1866.7,100,1813,100,1760,100C1706.7,100,1653,100,1600,100C1546.7,100,1493,100,1440,100C1386.7,100,1333,100,1280,100C1226.7,100,1173,100,1120,100C1066.7,100,1013,100,960,100C906.7,100,853,100,800,100C746.7,100,693,100,640,100C586.7,100,533,100,480,100C426.7,100,373,100,320,100C266.7,100,213,100,160,100C106.7,100,53,100,27,100L0,100Z"/></svg>