<?xml version="1.0" standalone="no"?>
<svg xmlns:xlink="http://www.w3.org/1999/xlink" id="wave" style="transform:rotate(0deg); transition: 0.3s" viewBox="0 0 1440 130" version="1.1" xmlns="http://www.w3.org/2000/svg"><defs><linearGradient id="sw-gradient-0" x1="0" x2="0" y1="1" y2="0"><stop stop-color="rgba(216, 216, 216, 1)" offset="0%"/><stop stop-color="rgba(216, 216, 216, 1)" offset="100%"/></linearGradient></defs><path style="transform:translate(0, 0px); opacity:1" fill="url(#sw-gradient-0)" d="M0,91L48,82.3C96,74,192,56,288,45.5C384,35,480,30,576,23.8C672,17,768,9,864,23.8C960,39,1056,78,1152,84.5C1248,91,1344,65,1440,65C1536,65,1632,91,1728,93.2C1824,95,1920,74,2016,65C2112,56,2208,61,2304,54.2C2400,48,2496,30,2592,39C2688,48,2784,82,2880,93.2C2976,104,3072,91,3168,84.5C3264,78,3360,78,3456,78C3552,78,3648,78,3744,84.5C3840,91,3936,104,4032,106.2C4128,108,4224,100,4320,84.5C4416,69,4512,48,4608,47.7C4704,48,4800,69,4896,67.2C4992,65,5088,39,5184,41.2C5280,43,5376,74,5472,71.5C5568,69,5664,35,5760,26C5856,17,5952,35,6048,34.7C6144,35,6240,17,6336,19.5C6432,22,6528,43,6624,52C6720,61,6816,56,6864,54.2L6912,52L6912,130L6864,130C6816,130,6720,130,6624,130C6528,130,6432,130,6336,130C6240,130,6144,130,6048,130C5952,130,5856,130,5760,130C5664,130,5568,130,5472,130C5376,130,5280,130,5184,130C5088,130,4992,130,4896,130C4800,130,4704,130,4608,130C4512,130,4416,130,4320,130C4224,130,4128,130,4032,130C3936,130,3840,130,3744,130C3648,130,3552,130,3456,130C3360,130,3264,130,3168,130C3072,130,2976,130,2880,130C2784,130,2688,130,2592,130C2496,130,2400,130,2304,130C2208,130,2112,130,2016,130C1920,130,1824,130,1728,130C1632,130,1536,130,1440,130C1344,130,1248,130,1152,130C1056,130,960,130,864,130C768,130,672,130,576,130C480,130,384,130,288,130C192,130,96,130,48,130L0,130Z"/></svg>